<svg width="117" height="124" viewBox="0 0 117 124" fill="none" xmlns="http://www.w3.org/2000/svg">
<path d="M10.6364 21.1315V37.1194H15.9545V21.1315C15.9545 18.215 14.9175 15.6962 12.8434 13.6281C10.982 11.7987 8.80159 10.7911 6.30205 10.579C8.80159 10.3669 10.982 9.35939 12.8434 7.50342C14.9175 5.43534 15.9545 2.94304 15.9545 0H10.6364C10.6364 1.48478 10.1045 2.73093 9.0675 3.76497C8.03045 4.79901 6.78068 5.30277 5.31818 5.30277V0H0V37.1194H5.31818V15.8288C6.78068 15.8288 8.03045 16.359 9.0675 17.3931C10.1045 18.4271 10.6364 19.6733 10.6364 21.1315Z" fill="white"/>
<path d="M15.9545 72.6055V43.4403H10.6364V59.3486C10.6364 60.091 10.3705 60.7008 9.83864 61.2311C9.30682 61.7614 8.69523 62 7.97727 62C7.23273 62 6.62114 61.7614 6.08932 61.2311C5.5575 60.7008 5.31818 60.091 5.31818 59.3486V43.4403H0V59.3486C0 61.5493 0.771136 63.4317 2.34 64.9696C3.88227 66.5339 5.77023 67.3028 7.97727 67.3028C8.90796 67.3028 9.78545 67.1702 10.6364 66.8785V72.6055C10.6364 73.3479 10.3705 73.9577 9.83864 74.488C9.30682 75.0183 8.69523 75.2569 7.97727 75.2569C7.23273 75.2569 6.62114 75.0183 6.08932 74.488C5.5575 73.9577 5.31818 73.3479 5.31818 72.6055H0C0 74.8062 0.771136 76.6887 2.34 78.2265C3.88227 79.7908 5.77023 80.5597 7.97727 80.5597C10.1577 80.5597 12.0457 79.7908 13.6145 78.2265C15.1568 76.6887 15.9545 74.8062 15.9545 72.6055Z" fill="white"/>
<path d="M21.2727 51.3945V72.6055C21.2727 74.8062 22.0439 76.6887 23.6127 78.2265C25.155 79.7908 27.043 80.5597 29.25 80.5597C31.4305 80.5597 33.3184 79.7908 34.8873 78.2265C36.4295 76.6887 37.2273 74.8062 37.2273 72.6055H31.9091C31.9091 73.3479 31.6432 73.9577 31.1114 74.488C30.5795 75.0183 29.968 75.2569 29.25 75.2569C28.5055 75.2569 27.8939 75.0183 27.362 74.488C26.8302 73.9577 26.5909 73.3479 26.5909 72.6055V51.3945C26.5909 50.6786 26.8302 50.0688 27.362 49.5385C27.8939 49.0082 28.5055 48.7431 29.25 48.7431C29.968 48.7431 30.5795 49.0082 31.1114 49.5385C31.6432 50.0688 31.9091 50.6786 31.9091 51.3945H37.2273C37.2273 49.2203 36.4295 47.3378 34.8873 45.7735C33.3184 44.2357 31.4305 43.4403 29.25 43.4403C27.043 43.4403 25.155 44.2357 23.6127 45.7735C22.0439 47.3378 21.2727 49.2203 21.2727 51.3945Z" fill="white"/>
<path d="M47.8636 48.7431H53.1818V80.5597H58.5V43.4403H42.5455V80.5597H47.8636V48.7431Z" fill="white"/>
<path d="M63.898 43.4138C63.8448 43.4138 63.8182 43.4668 63.8182 43.5198V80.4802C63.8182 80.5332 63.8448 80.5597 63.898 80.5597H74.3748C74.428 80.5597 74.4545 80.5332 74.4545 80.4802V75.31C74.4545 75.2569 74.428 75.2304 74.3748 75.2039H69.1364V59.3751H74.3748C74.428 59.3751 74.4545 59.3486 74.4545 59.2956V54.1254C74.4545 54.0724 74.428 54.0458 74.3748 54.0193H69.1364V48.7696H74.3748C74.428 48.7696 74.4545 48.7431 74.4545 48.69V43.5198C74.4545 43.4668 74.428 43.4403 74.3748 43.4138H63.898Z" fill="white"/>
<path d="M95.7273 43.4403H79.7727V48.7431H95.7273V43.4403ZM91.5259 62L95.2752 58.2615L91.4993 54.5231L87.75 58.2615L84.0007 54.5231L80.2248 58.2615L84.0007 62L80.2248 65.765L84.0007 69.5034L87.75 65.765L91.4993 69.5034L95.2752 65.765L91.5259 62ZM95.7273 75.2569H79.7727V80.5597H95.7273V75.2569Z" fill="white"/>
<path d="M117 72.6055V43.4403H111.682V59.3486C111.682 60.091 111.416 60.7008 110.884 61.2311C110.352 61.7614 109.741 62 109.023 62C108.278 62 107.667 61.7614 107.135 61.2311C106.603 60.7008 106.364 60.091 106.364 59.3486V43.4403H101.045V59.3486C101.045 61.5493 101.817 63.4317 103.385 64.9696C104.928 66.5339 106.816 67.3028 109.023 67.3028C109.953 67.3028 110.831 67.1702 111.682 66.8785V72.6055C111.682 73.3479 111.416 73.9577 110.884 74.488C110.352 75.0183 109.741 75.2569 109.023 75.2569C108.278 75.2569 107.667 75.0183 107.135 74.488C106.603 73.9577 106.364 73.3479 106.364 72.6055H101.045C101.045 74.8062 101.817 76.6887 103.385 78.2265C104.928 79.7908 106.816 80.5597 109.023 80.5597C111.203 80.5597 113.091 79.7908 114.66 78.2265C116.202 76.6887 117 74.8062 117 72.6055Z" fill="white"/>
<path d="M0 86.8806V124H26.5909V86.8806H21.2727V118.697H15.9545V86.8806H10.6364V118.697H5.31818V86.8806H0Z" fill="white"/>
<path d="M42.5455 86.8806C39.5939 86.8806 37.0943 87.9146 35.0202 89.9827C32.9461 92.0508 31.9091 94.5696 31.9091 97.4861V124H37.2273V97.4861C37.2273 96.0279 37.7325 94.7817 38.7695 93.7477C39.8066 92.7136 41.0564 92.1834 42.5455 92.1834V124H47.8636V86.8806H42.5455Z" fill="white"/>
<path d="M74.4545 118.697H53.1818V124H74.4545V118.697ZM74.4545 86.8806H53.1818V92.1834H74.4545V86.8806ZM68.1525 109.338L71.7955 113.421L75.7841 109.895L67.142 100.191L67.1155 100.164C65.653 98.5202 63.8182 97.6452 61.6377 97.5127C59.4307 97.4066 57.5161 98.0694 55.8675 99.5012C54.2189 100.959 53.3148 102.789 53.2084 104.99C53.0755 107.19 53.7402 109.099 55.2027 110.743C56.6386 112.387 58.4734 113.262 60.6805 113.394C62.8875 113.527 64.8286 112.864 66.4773 111.406C67.1686 110.796 67.7271 110.107 68.1525 109.338ZM59.1914 107.217C58.6861 106.686 58.4468 106.05 58.5 105.308C58.5532 104.565 58.8457 103.956 59.4041 103.478C59.9359 103.001 60.5741 102.762 61.3186 102.815C62.0632 102.868 62.6748 103.16 63.1534 103.69L63.18 103.717C63.632 104.247 63.8448 104.884 63.8182 105.599C63.765 106.342 63.4725 106.952 62.9407 107.429C62.3823 107.906 61.7441 108.145 60.9995 108.092C60.255 108.039 59.67 107.747 59.1914 107.217Z" fill="white"/>
</svg>
